<svg xmlns="http://www.w3.org/2000/svg" xmlns:xlink="http://www.w3.org/1999/xlink" x="0px" y="0px" viewBox="0 0 48 48" width="48" height="48"><title>book bookmark 2</title><g class="nc-icon-wrapper"><path fill="#E6E6E6" d="M12,46c-3.309,0-6-2.691-6-6s2.691-6,6-6h31v12H12z"/> <path fill="#43A6DD" d="M42,1H10C7.239,1,5,3.239,5,6v34c0,3.866,3.134,7,7,7h30c0.553,0,1-0.448,1-1s-0.447-1-1-1l-29.777,0 c-2.61,0-4.945-1.903-5.199-4.5C6.733,37.52,9.078,35,12,35h30c0.552,0,1-0.448,1-1V2C43,1.448,42.552,1,42,1z"/> <path fill="#B3B3B3" d="M43,41H11c-0.553,0-1-0.448-1-1s0.447-1,1-1h32V41z"/> <path fill="#458BC4" d="M10,33c-0.553,0-1-0.448-1-1V4c0-0.552,0.447-1,1-1s1,0.448,1,1v28C11,32.552,10.553,33,10,33z"/> <polygon fill="#9EDB9E" points="37,1 29,1 29,14 33,12 37,14 "/></g></svg>