<svg xmlns="http://www.w3.org/2000/svg" viewBox="0 0 48 48" width="48" height="48"><title>f info</title><g class="nc-icon-wrapper"><path fill="#43A6DD" d="M41,47H7c-1.105,0-2-0.895-2-2V3c0-1.105,0.895-2,2-2l24,0l12,12v32C43,46.105,42.105,47,41,47z"/> <path fill="#2A8FBC" d="M31,1v10c0,1.105,0.895,2,2,2h10L31,1z"/> <path fill="#FFFFFF" d="M24,37c-0.552,0-1-0.448-1-1V23h-3c-0.552,0-1-0.448-1-1s0.448-1,1-1h4c0.552,0,1,0.448,1,1v14 C25,36.552,24.552,37,24,37z"/> <path fill="#FFFFFF" d="M28,37h-8c-0.552,0-1-0.448-1-1s0.448-1,1-1h8c0.552,0,1,0.448,1,1S28.552,37,28,37z"/> <circle fill="#FFFFFF" cx="24" cy="16" r="2"/></g></svg>