<svg xmlns="http://www.w3.org/2000/svg" viewBox="0 0 48 48" width="48" height="48"><title>grain effect</title><g class="nc-icon-wrapper"><rect x="3" y="38" width="7" height="7" fill="#223e49"/><polyline points="3 31 3 24 10 24 10 31" fill="#223e49"/><rect x="3" y="10" width="7" height="7" fill="#223e49"/><rect x="3" y="3" width="7" height="7" fill="#335262"/><rect x="10" y="31" width="7" height="7" fill="#335262"/><rect x="10" y="24" width="7" height="7" fill="#5a7a84"/><rect x="10" y="17" width="7" height="7" fill="#335262"/><rect x="3" y="17" width="7" height="7" fill="#335262"/><rect x="10" y="10" width="7" height="7" fill="#82adb2"/><rect x="17" y="38" width="7" height="7" fill="#82adb2"/><rect x="17" y="24" width="7" height="7" fill="#82adb2"/><rect x="17" y="17" width="7" height="7" fill="#5a7a84"/><rect x="17" y="3" width="7" height="7" fill="#82adb2"/><rect x="24" y="31" width="7" height="7" fill="#335262"/><rect x="24" y="17" width="7" height="7" fill="#a4dae0"/><rect x="24" y="10" width="7" height="7" fill="#335262"/><rect x="31" y="31" width="7" height="7" fill="#82adb2"/><rect x="31" y="38" width="7" height="7" fill="#a4dae0"/><rect x="31" y="10" width="7" height="7" fill="#82adb2"/><rect x="38" y="38" width="7" height="7" fill="#c8e9ec"/><rect x="38" y="24" width="7" height="7" fill="#a4dae0"/><rect x="38" y="3" width="7" height="7" fill="#c8e9ec"/></g></svg>